<svg id="Слой_1" data-name="Слой 1" xmlns="http://www.w3.org/2000/svg" viewBox="0 0 143.82 115.81"><title>Безымянный-1</title><polygon points="143.82 73.17 143.82 42.65 71.91 27.39 0 42.65 0 73.17 71.91 88.42 143.82 73.17" fill="#fff"/><path d="M22.95,64.37H20.76V50h3.68l0.44,0a7.79,7.79,0,0,1,1.59.21,2.88,2.88,0,0,1,1.38.79,3.65,3.65,0,0,1,.79,1.17A4.17,4.17,0,0,1,29,53.5a0.83,0.83,0,0,1,0,.2v0.22a3.93,3.93,0,0,1-.81,2.69,4.08,4.08,0,0,1-2.47,1.2l4.93,6.56H28l-4.79-6.44H22.95v6.44Zm0.16-8.26h1.12a4.2,4.2,0,0,0,1.59-.4,1.49,1.49,0,0,0,.76-1.47V54.11a1.65,1.65,0,0,0-.93-1.79A6.32,6.32,0,0,0,23.55,52H23.11v4.12Z" fill="#212121"/><path d="M33.46,56.13A5.22,5.22,0,0,1,37,54.71h0.35a2.63,2.63,0,0,1,.4.06,1.15,1.15,0,0,1,.28,0l0.28,0.06a4.84,4.84,0,0,1,2.72,1.83,5,5,0,0,1,1.07,3.06v0.3a0.46,0.46,0,0,0,0,.15v0.15a4.68,4.68,0,0,1-1.74,3.12A5.17,5.17,0,0,1,37,64.69a5.09,5.09,0,0,1-3.59-1.45,4.68,4.68,0,0,1-1.55-3.55A4.58,4.58,0,0,1,33.46,56.13Zm1.78,6.09a2.6,2.6,0,0,0,1.57.6h0.35A3.19,3.19,0,0,0,39,61.9a2.86,2.86,0,0,0,.85-2.16A3.14,3.14,0,0,0,39,57.57,2.68,2.68,0,0,0,37,56.64H36.65a2.54,2.54,0,0,0-1.79,1,3.37,3.37,0,0,0-.7,2v0.07a1.86,1.86,0,0,0,0,.29l0,0.29a0.47,0.47,0,0,1,0,.1,0.55,0.55,0,0,1,0,.1A2.81,2.81,0,0,0,35.24,62.23Z" fill="#212121"/><path d="M44.44,49.13h2.12V64.37H44.44V49.13Z" fill="#212121"/><path d="M49.19,49.13H51.3V64.37H49.19V49.13Z" fill="#212121"/><path d="M56,52.08a1.13,1.13,0,0,1-.94.4,1.1,1.1,0,0,1-.93-0.4,1.42,1.42,0,0,1-.3-0.88V51.08a1.52,1.52,0,0,1,.35-0.81A1.07,1.07,0,0,1,55,49.9a1.11,1.11,0,0,1,.9.37,1.49,1.49,0,0,1,.36.81V51.2A1.39,1.39,0,0,1,56,52.08Zm-2,3H56v9.3H53.93v-9.3Z" fill="#212121"/><path d="M58.65,55.06h2v1.51a4.59,4.59,0,0,1,1.51-1.34,4.34,4.34,0,0,1,2-.57h0.51a2.08,2.08,0,0,1,.37.06l0.49,0.12A3.8,3.8,0,0,1,66,55a2.16,2.16,0,0,1,1.42,1.47,8.53,8.53,0,0,1,.26,2.12v5.77H65.52V59.57a6.85,6.85,0,0,0-.3-2.12,1.55,1.55,0,0,0-1.7-.93H63.26q-1.72.09-2.07,1.13a8.61,8.61,0,0,0-.4,2.45v4.26H58.65v-9.3Z" fill="#212121"/><path d="M79.59,64.23a4.55,4.55,0,0,1,0,.47,6.61,6.61,0,0,1-.28,1.57,2.8,2.8,0,0,1-.88,1.31,3.6,3.6,0,0,1-1.33.78,6,6,0,0,1-1.51.29l-0.36,0h-1a5.67,5.67,0,0,1-2.42-.78,2.48,2.48,0,0,1-1.19-2.17l2.3,0a1.12,1.12,0,0,0,.53.88,2.32,2.32,0,0,0,1,.33l0.17,0h0.85a1.91,1.91,0,0,0,1.69-1,4.44,4.44,0,0,0,.31-1.7V63.16a3.91,3.91,0,0,1-1.34,1.15,3.84,3.84,0,0,1-1.76.38l-0.09,0a3.67,3.67,0,0,1-3-1.37,5.32,5.32,0,0,1-1.14-3.09V60a0.07,0.07,0,0,1,0,0V59.76a5.07,5.07,0,0,1,1.15-3.57,4.21,4.21,0,0,1,2.55-1.43l0.24,0h0.27a3.69,3.69,0,0,1,1.81.48,3,3,0,0,1,1.28,1.38V55.06h2.16v9.16Zm-4.68-7.58a2.24,2.24,0,0,0-1.72.7,3,3,0,0,0-.77,1.79,1.23,1.23,0,0,1,0,.16q0,0.09,0,.21v0a1.61,1.61,0,0,0,0,.17,1,1,0,0,0,0,.15,3,3,0,0,0,.76,2.21,2.42,2.42,0,0,0,1.66.77h0.2l0.13,0a2.68,2.68,0,0,0,1.67-.9,3.19,3.19,0,0,0,.77-2.29,4,4,0,0,0-.5-2,2.06,2.06,0,0,0-1.66-1H74.91Z" fill="#212121"/><path d="M95,57.76L90.17,50h2.44l3,4.91a1.47,1.47,0,0,1,.16.26l0.14,0.28,0,0.09,0,0.12,0.1,0.19L96.24,56a4.91,4.91,0,0,1,.27-0.62c0.1-.19.21-0.39,0.34-0.59L99.94,50h2.33l-4.93,7.79v6.61H95V57.76Z" fill="#212121"/><path d="M103.66,56.13a5.22,5.22,0,0,1,3.58-1.42h0.35a2.63,2.63,0,0,1,.4.06,1.15,1.15,0,0,1,.28,0l0.28,0.06a4.84,4.84,0,0,1,2.72,1.83,5,5,0,0,1,1.07,3.06v0.3a0.46,0.46,0,0,0,0,.15v0.15a4.68,4.68,0,0,1-1.74,3.12,5.17,5.17,0,0,1-3.35,1.21,5.09,5.09,0,0,1-3.59-1.45,4.68,4.68,0,0,1-1.55-3.55A4.58,4.58,0,0,1,103.66,56.13Zm1.78,6.09a2.6,2.6,0,0,0,1.57.6h0.35a3.19,3.19,0,0,0,1.87-.93,2.86,2.86,0,0,0,.85-2.16,3.14,3.14,0,0,0-.84-2.16,2.68,2.68,0,0,0-2.07-.93h-0.33a2.54,2.54,0,0,0-1.79,1,3.37,3.37,0,0,0-.7,2v0.07a1.86,1.86,0,0,0,0,.29l0,0.29a0.47,0.47,0,0,1,0,.1,0.55,0.55,0,0,1,0,.1A2.81,2.81,0,0,0,105.44,62.23Z" fill="#212121"/><path d="M116.71,60.29a3,3,0,0,0,.52,1.88,2.25,2.25,0,0,0,1.85.65,2.46,2.46,0,0,0,1.87-.65,2.93,2.93,0,0,0,.5-1.88V55.06h2.16v4.58a6.24,6.24,0,0,1-1,3.72q-1,1.33-3.52,1.33a4.3,4.3,0,0,1-3.55-1.27,5.59,5.59,0,0,1-1-3.57v0a0.18,0.18,0,0,1,0-.07V55.06h2.12v5.23Z" fill="#212121"/><path d="M62,42.61v0.32a1.63,1.63,0,0,0-1.23-.57,1.56,1.56,0,0,0-.79.22,1.67,1.67,0,0,0-.65.67,1.63,1.63,0,0,0-.19.77,1.53,1.53,0,0,0,.57,1.22,1.63,1.63,0,0,0,1.07.42,1.71,1.71,0,0,0,.91-0.28A1.62,1.62,0,0,0,62,45.11v0.32a1.93,1.93,0,0,1-1.21.45,1.86,1.86,0,0,1-.84-0.2,1.92,1.92,0,0,1-.83-0.79A1.78,1.78,0,0,1,58.92,44a1.81,1.81,0,0,1,.23-0.89,1.87,1.87,0,0,1,.73-0.74,1.84,1.84,0,0,1,.92-0.25,1.76,1.76,0,0,1,.64.11A2,2,0,0,1,62,42.61Z" fill="#212121"/><path d="M64.13,42.19v2.27a3.43,3.43,0,0,0,0,.5,0.74,0.74,0,0,0,.1.28,0.87,0.87,0,0,0,.38.31,1.14,1.14,0,0,0,.49.11,1.11,1.11,0,0,0,.66-0.21,0.68,0.68,0,0,0,.27-0.34,2.25,2.25,0,0,0,.07-0.65V42.19h0.24v2.34a2.65,2.65,0,0,1,0,.53,0.89,0.89,0,0,1-.15.33,1.12,1.12,0,0,1-.48.38,1.4,1.4,0,0,1-.56.11,1.34,1.34,0,0,1-.78-0.24A1,1,0,0,1,63.93,45a2.81,2.81,0,0,1,0-.51V42.19h0.24Z" fill="#212121"/><path d="M70.26,42.65l-0.17.15a1.25,1.25,0,0,0-.2-0.25,0.75,0.75,0,0,0-.51-0.19,0.63,0.63,0,0,0-.52.23,0.7,0.7,0,0,0-.17.46,0.51,0.51,0,0,0,.14.36,1.81,1.81,0,0,0,.51.33,7.06,7.06,0,0,1,.72.38,0.79,0.79,0,0,1,.39.69,1,1,0,0,1-.39.81,1.15,1.15,0,0,1-.74.26,1.07,1.07,0,0,1-.65-0.2,1.3,1.3,0,0,1-.43-0.59l0.2-.1a1.69,1.69,0,0,0,.2.35,0.79,0.79,0,0,0,.29.23,0.89,0.89,0,0,0,.38.08,0.88,0.88,0,0,0,.63-0.25,0.8,0.8,0,0,0,.26-0.6,0.63,0.63,0,0,0-.36-0.56l-0.68-.34a1.68,1.68,0,0,1-.56-0.38A0.74,0.74,0,0,1,68.45,43a0.86,0.86,0,0,1,.3-0.68,0.93,0.93,0,0,1,.63-0.22A1,1,0,0,1,70.26,42.65Z" fill="#212121"/><path d="M73,42.41v3.41H72.76V42.41H71.83V42.19h2.11v0.22H73Z" fill="#212121"/><path d="M77,42.14a1.81,1.81,0,0,1,1,.27,1.93,1.93,0,0,1,.66.66,1.79,1.79,0,0,1,.26.94,1.82,1.82,0,0,1-.26.94,1.9,1.9,0,0,1-.66.66,1.87,1.87,0,0,1-1,.27,1.83,1.83,0,0,1-.95-0.27A1.86,1.86,0,0,1,75.16,44a1.71,1.71,0,0,1,.26-0.91,2,2,0,0,1,.66-0.66A1.9,1.9,0,0,1,77,42.14Zm0,0.22a1.58,1.58,0,0,0-.84.24,1.66,1.66,0,0,0-.59.6,1.54,1.54,0,0,0-.22.78,1.59,1.59,0,0,0,.53,1.23,1.68,1.68,0,0,0,.59.35,1.53,1.53,0,0,0,.51.09,1.63,1.63,0,0,0,.85-0.24,1.67,1.67,0,0,0,.59-0.6A1.63,1.63,0,0,0,78.68,44a1.58,1.58,0,0,0-.53-1.2A1.61,1.61,0,0,0,77,42.36Z" fill="#212121"/><path d="M80.76,45.82l0.41-3.76,1.57,3.36,1.58-3.36,0.42,3.76H84.5L84.17,42.9l-1.43,3.05L81.31,42.9,81,45.82H80.76Z" fill="#212121"/><path d="M51.3,75.37l1.19,1.72H52.21L51,75.37H50.93v1.72H50.69V73.46h0.52a2,2,0,0,1,.45,0,1,1,0,0,1,.32.14,0.89,0.89,0,0,1,.36.78,0.86,0.86,0,0,1-.46.84A1.42,1.42,0,0,1,51.3,75.37Zm-0.37-.22h0.35A0.89,0.89,0,0,0,51.86,75a0.7,0.7,0,0,0,.24-0.57A0.82,0.82,0,0,0,52,74a0.56,0.56,0,0,0-.23-0.25,1.16,1.16,0,0,0-.55-0.11h-0.3v1.48Z" fill="#212121"/><path d="M56.06,73.67h-1.5V75H56v0.22H54.56v1.66h1.5v0.22H54.32V73.46h1.74v0.22Z" fill="#212121"/><path d="M57.93,77.09V73.42l3,3.19V73.46h0.24v3.72l-3-3.19v3.1H57.93Z" fill="#212121"/><path d="M64,73.67v3.41H63.8V73.67H62.87V73.46H65v0.22H64Z" fill="#212121"/><path d="M70.36,75l0.89,1.2a4.55,4.55,0,0,0,.43-0.48l0.21,0.1a5.57,5.57,0,0,1-.5.58l0.55,0.74h-0.3l-0.43-.58-0.36.28a1.73,1.73,0,0,1-1,.36,0.92,0.92,0,0,1-.38-0.09,1,1,0,0,1-.33-0.24,0.89,0.89,0,0,1-.23-0.62,1,1,0,0,1,.25-0.67A3.1,3.1,0,0,1,70,74.9a3.91,3.91,0,0,1-.29-0.49,0.76,0.76,0,0,1-.08-0.31,0.67,0.67,0,0,1,.22-0.51,0.69,0.69,0,0,1,.49-0.2,0.62,0.62,0,0,1,.5.23,0.68,0.68,0,0,1,.16.44,0.85,0.85,0,0,1-.32.64Zm-0.2.12-0.34.22a1.68,1.68,0,0,0-.48.42,0.79,0.79,0,0,0-.16.47,0.72,0.72,0,0,0,.25.57,0.69,0.69,0,0,0,.47.18,2,2,0,0,0,1.17-.62Zm0.07-.3,0.07-.06a2.06,2.06,0,0,0,.4-0.35,0.51,0.51,0,0,0,.1-0.31,0.4,0.4,0,0,0-.14-0.32,0.45,0.45,0,0,0-.31-0.12,0.41,0.41,0,0,0-.34.17,0.51,0.51,0,0,0-.12.33,0.78,0.78,0,0,0,.16.42Z" fill="#212121"/><path d="M76.66,75.37l1.19,1.72H77.57L76.4,75.37H76.29v1.72H76.05V73.46h0.52a2,2,0,0,1,.45,0,1,1,0,0,1,.32.14,0.89,0.89,0,0,1,.36.78,0.86,0.86,0,0,1-.46.84A1.42,1.42,0,0,1,76.66,75.37Zm-0.37-.22h0.35A0.89,0.89,0,0,0,77.22,75a0.7,0.7,0,0,0,.24-0.57A0.82,0.82,0,0,0,77.38,74a0.56,0.56,0,0,0-.23-0.25,1.16,1.16,0,0,0-.55-0.11h-0.3v1.48Z" fill="#212121"/><path d="M81.42,73.67h-1.5V75h1.47v0.22H79.92v1.66h1.5v0.22H79.69V73.46h1.74v0.22Z" fill="#212121"/><path d="M83.53,75.36v1.72H83.3V73.46H84a1.4,1.4,0,0,1,.47.07,0.83,0.83,0,0,1,.33.21,0.94,0.94,0,0,1,.26.68,0.91,0.91,0,0,1-.28.7,1.08,1.08,0,0,1-.77.25H83.53Zm0-.22H84a0.82,0.82,0,0,0,.6-0.22,0.69,0.69,0,0,0,.21-0.52,0.72,0.72,0,0,0-.2-0.53,0.88,0.88,0,0,0-.64-0.2H83.53v1.47Z" fill="#212121"/><path d="M88.42,75.89H86.88l-0.48,1.19H86.13l1.53-3.74,1.51,3.74H88.9Zm-0.09-.22L87.65,74,87,75.67h1.37Z" fill="#212121"/><path d="M91.06,73.46v3.63H90.82V73.46h0.24Z" fill="#212121"/><path d="M93.74,75.37l1.19,1.72H94.64l-1.17-1.72H93.36v1.72H93.13V73.46h0.52a2,2,0,0,1,.45,0,1,1,0,0,1,.32.14,0.89,0.89,0,0,1,.36.78,0.86,0.86,0,0,1-.46.84A1.42,1.42,0,0,1,93.74,75.37Zm-0.37-.22h0.35A0.89,0.89,0,0,0,94.29,75a0.7,0.7,0,0,0,.24-0.57A0.82,0.82,0,0,0,94.45,74a0.56,0.56,0,0,0-.23-0.25,1.16,1.16,0,0,0-.55-0.11h-0.3v1.48Z" fill="#212121"/><circle cx="7.1" cy="57.91" r="1.81" fill="#212121"/><circle cx="136.72" cy="57.91" r="1.81" fill="#212121"/><path d="M124.3,33.75l-0.41-.84a1,1,0,0,0-1.09-.54l-2.29.58Z" fill="#fff"/><path d="M22.19,33.18l9.12-1.94a49.36,49.36,0,0,1,4.52-5.9l4.08,4.08,5.8-1.23-6.36-6.36A48.38,48.38,0,0,1,69.43,9.38V23.16l2.49-.53,2.49,0.53V9.38a48.38,48.38,0,0,1,30.08,12.45l-6.36,6.36,5.8,1.23L108,25.34a49.36,49.36,0,0,1,4.52,5.9l6.86,1.46a9,9,0,0,0-.59-1.11l-0.93-1.53,2.37-2.31a1,1,0,0,0,.13-1.23,16.82,16.82,0,0,0-1.42-2.1,1,1,0,0,0-1.19-.34l-3,1.34L113.65,24a14.36,14.36,0,0,0-1.16-1.36L114.43,20a1,1,0,0,0-.09-1.22l-1.71-1.87a1,1,0,0,0-1.24-.12l-2.76,1.84-1.32-1.2L106,16.22l1.45-2.94a1,1,0,0,0-.31-1.17l-2-1.52a0.94,0.94,0,0,0-1.2,0l-2.41,2.28L99.94,12,98.41,11l1-3.19a0.94,0.94,0,0,0-.49-1.12L96.6,5.64a1,1,0,0,0-1.19.26l-2,2.63a11.12,11.12,0,0,0-1.65-.69l-1.68-.61,0.4-3.29a1,1,0,0,0-.67-1,18.16,18.16,0,0,0-2.43-.73,1,1,0,0,0-1.13.48l-1.5,2.94L83,5.14a14.24,14.24,0,0,0-1.76-.32L81.11,1.54A1,1,0,0,0,80.27.65l-2.51-.38a1,1,0,0,0-1,.68l-1,3.18L74,4l-1.79-.09L71.45,0.7a0.93,0.93,0,0,0-1-.7l-2.53.13a1,1,0,0,0-.91.8L66.59,4.17a15.13,15.13,0,0,0-1.77.23L63,4.67,61.79,1.6A1,1,0,0,0,60.7,1a21.11,21.11,0,0,0-2.47.56,1,1,0,0,0-.76,1l0.12,3.3-1.73.44c-0.57.16-1.12,0.4-1.69,0.59L52.42,4.08a1,1,0,0,0-1.17-.37c-0.79.3-1.6,0.56-2.37,0.9a1,1,0,0,0-.57,1.11L49,9l-1.61.78c-0.53.27-1.08,0.5-1.6,0.79L43.59,8.09a1,1,0,0,0-1.2-.15L40.22,9.26a0.94,0.94,0,0,0-.41,1.13L41,13.47,39.6,14.55l-1.43,1.07-2.6-2.08a0.92,0.92,0,0,0-1.22,0l-1.88,1.71a1,1,0,0,0-.2,1.2L34,19.3a13.26,13.26,0,0,0-1.25,1.28l-1.2,1.32-2.9-1.6a1,1,0,0,0-1.22.23,22.72,22.72,0,0,0-1.57,2,1,1,0,0,0,0,1.23L28,26.24l-1.07,1.43L26,29.2l-3.12-1.08a1,1,0,0,0-1.14.44c-0.42.73-.92,1.42-1.27,2.19A1,1,0,0,0,20.71,32Z" fill="#fff"/><path d="M120.51,82.87l2.29,0.58a1,1,0,0,0,1.09-.54l0.41-.85Z" fill="#fff"/><path d="M117.85,85.75l0.93-1.53a9.06,9.06,0,0,0,.59-1.11l-6.86,1.46a49.33,49.33,0,0,1-4.52,5.9l-4.08-4.08-5.8,1.23L104.47,94A48.38,48.38,0,0,1,74.4,106.43V92.65l-2.49.53-2.49-.53v13.78A48.38,48.38,0,0,1,39.35,94l6.36-6.36-5.8-1.23-4.08,4.08a49.36,49.36,0,0,1-4.52-5.9l-9.12-1.94-1.48,1.21a1,1,0,0,0-.24,1.22c0.35,0.77.85,1.46,1.27,2.19a1,1,0,0,0,1.14.44L26,86.61l0.93,1.53L28,89.57l-2.16,2.49a1,1,0,0,0,0,1.23,22.72,22.72,0,0,0,1.57,2,1,1,0,0,0,1.22.23l2.9-1.6,1.2,1.32A13.26,13.26,0,0,0,34,96.51l-1.7,2.81a1,1,0,0,0,.2,1.2l1.88,1.71a0.92,0.92,0,0,0,1.22,0l2.6-2.08,1.43,1.07L41,102.34l-1.23,3.09a0.94,0.94,0,0,0,.41,1.13l2.17,1.32a1,1,0,0,0,1.2-.15l2.19-2.44c0.52,0.29,1.07.53,1.6,0.79L49,106.85l-0.68,3.25a1,1,0,0,0,.57,1.11c0.78,0.34,1.58.6,2.37,0.9a1,1,0,0,0,1.17-.37l1.75-2.79c0.56,0.19,1.11.44,1.69,0.59L57.59,110l-0.12,3.3a1,1,0,0,0,.76,1,21.09,21.09,0,0,0,2.47.56,1,1,0,0,0,1.09-.59L63,111.14l1.77,0.27a15.1,15.1,0,0,0,1.77.23L67,114.88a1,1,0,0,0,.91.8l2.53,0.13a0.93,0.93,0,0,0,1-.7l0.72-3.24,1.79-.09,1.79-.09,1,3.18a1,1,0,0,0,1,.68l2.51-.38a1,1,0,0,0,.84-0.89L81.28,111a14.24,14.24,0,0,0,1.76-.32l1.73-.45,1.5,2.94a1,1,0,0,0,1.13.48,18.14,18.14,0,0,0,2.43-.73,1,1,0,0,0,.67-1l-0.4-3.29,1.68-.61a11.14,11.14,0,0,0,1.65-.69l2,2.63a1,1,0,0,0,1.19.26l2.29-1.1a0.94,0.94,0,0,0,.49-1.12l-1-3.19,1.53-.93,1.53-.93,2.41,2.28a0.94,0.94,0,0,0,1.2,0l2-1.52a1,1,0,0,0,.31-1.17L106,99.59l1.33-1.2,1.32-1.2L111.38,99a1,1,0,0,0,1.24-.12L114.33,97a1,1,0,0,0,.09-1.22l-1.94-2.66a14.38,14.38,0,0,0,1.16-1.36l1.07-1.43,3,1.34a1,1,0,0,0,1.19-.34,16.82,16.82,0,0,0,1.42-2.1,1,1,0,0,0-.13-1.23Z" fill="#fff"/></svg>